<?xml version="1.0" encoding="utf-8"?>
<!-- Generator: Adobe Illustrator 23.0.1, SVG Export Plug-In . SVG Version: 6.00 Build 0)  -->
<svg version="1.1" id="Layer_1" xmlns="http://www.w3.org/2000/svg" xmlns:xlink="http://www.w3.org/1999/xlink" x="0px" y="0px"
	 viewBox="0 0 50 50" style="enable-background:new 0 0 50 50;" xml:space="preserve">
<style type="text/css">
	.st0{fill:none;}
	.st1{fill:#E7F699;stroke:#000000;stroke-width:2.478;stroke-linecap:round;stroke-linejoin:round;}
</style>
<path class="st0" d="z"/>
<path id="path10" class="st1" d="M5.07,28.18v11.89h32.66l7.94-6.17l-7.94-5.72H5.07z"/>
<g id="text4142" transform="matrix(0.83345522,0,0,0.83345522,24.848284,10.910512)">
	<g id="g4153" transform="matrix(0.82202486,0,0,0.82202486,0.76715881,1.8607386)">
		<path id="path4147" d="M-15.01,14.87l-2.22-6.43h-7.1l-2.22,6.43h-2.44l8.12-22.39h0.28l8.12,22.39
			C-12.47,14.87-15.01,14.87-15.01,14.87z M-23.66,6.54h5.79l-2.9-8.4C-20.77-1.86-23.66,6.54-23.66,6.54z"/>
		<path id="path4149" d="M-4.56,14.87V-4.93h-6.25v-2.22H4.44v2.22h-6.5v19.81C-2.05,14.87-4.56,14.87-4.56,14.87z"/>
		<path id="path4151" d="M21.99,4.32v8.62c-2.1,1.53-4.25,2.3-6.46,2.3c-1.74,0-3.26-0.46-4.55-1.38c-1.27-0.92-2.25-2.21-2.93-3.88
			C7.36,8.29,7.02,6.35,7.02,4.14C7,1.22,7.42-1.09,8.29-2.78c0.87-1.72,1.94-2.91,3.21-3.57c1.27-0.68,2.55-1.02,3.85-1.02
			c1.32,0,2.59,0.34,3.81,1.02c1.22,0.68,2.14,1.58,2.75,2.68l-1.73,1.38l-0.04,0.04c-0.8-1.06-1.54-1.81-2.22-2.26
			c-0.68-0.45-1.53-0.67-2.54-0.67c-1.77,0-3.2,0.68-4.31,2.05C10-1.77,9.46,0.48,9.46,3.61c0,3.01,0.53,5.34,1.59,6.99
			c1.08,1.62,2.58,2.44,4.48,2.44c0.71,0,1.45-0.11,2.22-0.32c0.78-0.24,1.42-0.58,1.94-1.02V6.47h-3.99V4.32
			C15.71,4.32,21.99,4.32,21.99,4.32z M19.77-2.25c0-0.14,0.11-0.13,0.32,0.04l-0.18,0.18C19.91-2.04,19.77-2.25,19.77-2.25z
			 M20.16-2.25c0.12,0.16,0.09,0.18-0.07,0.04L20.16-2.25z"/>
	</g>
</g>
</svg>
